<?xml version="1.0" standalone="no"?>
<!DOCTYPE svg PUBLIC "-//W3C//DTD SVG 1.1//EN" "http://www.w3.org/Graphics/SVG/1.1/DTD/svg11.dtd" >
<svg xmlns="http://www.w3.org/2000/svg">
<metadata></metadata>
<defs>
<font id="exo_2.0bold" horiz-adv-x="606" >
<font-face units-per-em="1000" ascent="800" descent="-200" />
<missing-glyph horiz-adv-x="217" />
<glyph horiz-adv-x="1000" />
<glyph horiz-adv-x="1000" />
<glyph unicode="&#xd;" horiz-adv-x="1000" />
<glyph unicode=" "  horiz-adv-x="217" />
<glyph unicode="&#x09;" horiz-adv-x="217" />
<glyph unicode="&#xa0;" horiz-adv-x="217" />
<glyph unicode="!" horiz-adv-x="300" d="M76 425v270h147v-270l-15 -206h-116zM81 52v48q0 29 11.5 40t40.5 11h34q29 0 40.5 -11t11.5 -40v-48q0 -29 -11.5 -40.5t-40.5 -11.5h-34q-29 0 -40.5 11.5t-11.5 40.5z" />
<glyph unicode="&#x22;" horiz-adv-x="375" d="M53 690h108l-9 -221h-91zM214 690h109l-9 -221h-91z" />
<glyph unicode="#" horiz-adv-x="710" d="M32 197l17 89h115l24 140h-114l17 88h113l30 176h112l-31 -176h140l30 176h112l-31 -176h112l-17 -88h-110l-24 -140h109l-17 -89h-108l-34 -197h-112l34 197h-139l-34 -197h-112l34 197h-116zM276 286h139l24 140h-139z" />
<glyph unicode="$" horiz-adv-x="577" d="M45 512q0 76 24.5 117.5t73 57t135.5 16.5l9 90h111l-10 -94q72 -7 129 -23l-9 -104q-87 3 -214 3q-59 0 -79 -10.5t-20 -52.5q0 -34 15.5 -49t57.5 -29l128 -45q79 -28 111.5 -76.5t32.5 -126.5q0 -110 -50.5 -153t-176.5 -45l-10 -108h-111l10 111q-69 5 -150 22 l10 112q167 -4 225 -4q60 0 80.5 12.5t20.5 51.5q0 35 -14 49.5t-52 26.5l-136 49q-76 28 -108.5 76t-32.5 126z" />
<glyph unicode="%" horiz-adv-x="907" d="M34 498q0 115 38 160t133 45q96 0 134 -45t38 -160q0 -114 -38 -159.5t-134 -45.5q-95 0 -133 45.5t-38 159.5zM143 498q0 -75 12.5 -99t48.5 -24q38 0 50.5 24t12.5 99t-12.5 99t-50.5 24q-36 0 -48.5 -24.5t-12.5 -98.5zM198 0l414 690h94l-413 -690h-95zM531 194 q0 114 37.5 159.5t132.5 45.5q96 0 134 -45.5t38 -159.5q0 -115 -38 -160.5t-134 -45.5q-95 0 -132.5 45.5t-37.5 160.5zM640 194q-1 -75 11.5 -99t49.5 -24t49.5 24t12.5 99q0 74 -12.5 98t-49.5 24t-49.5 -23.5t-11.5 -98.5z" />
<glyph unicode="&#x26;" horiz-adv-x="765" d="M51 175q0 83 31.5 129t104.5 52v4q-61 6 -88 45t-27 116q0 60 14 96t49.5 54.5t80.5 24.5t124 6q98 0 163 -12l-18 -105q-102 3 -149 3q-66 0 -88 -17t-22 -73q0 -53 19.5 -72t73.5 -19h152l10 106h124v-106h107v-103h-107v-145q0 -29 10.5 -40t37.5 -11h62l16 -100 q-52 -20 -127 -20q-99 0 -128 73q-41 -39 -90.5 -56t-125.5 -17q-113 0 -161 42t-48 145zM212 205q0 -57 18 -76t73 -19q99 2 163 45v149h-155q-58 0 -78.5 -20.5t-20.5 -78.5z" />
<glyph unicode="'" horiz-adv-x="213" d="M53 690h108l-9 -221h-91z" />
<glyph unicode="(" horiz-adv-x="365" d="M39 312q0 199 70 315t220 163l17 -64q-164 -75 -164 -413q0 -333 164 -414l-17 -64q-150 48 -220 163.5t-70 313.5z" />
<glyph unicode=")" horiz-adv-x="365" d="M19 -101q164 81 164 414q0 338 -164 413l17 64q150 -47 220 -163t70 -315q0 -198 -70 -313.5t-220 -163.5z" />
<glyph unicode="*" horiz-adv-x="452" d="M38 534l25 78l116 -49v-36l-18 -22zM90 395l107 128l-12 168h82l-12 -167l106 -129l-65 -49l-70 122l-70 -121zM273 527v36l116 49l25 -78l-122 -29z" />
<glyph unicode="+" horiz-adv-x="539" d="M42 247v108h172v168h110v-168h173v-108h-173v-167h-109v167h-173z" />
<glyph unicode="," horiz-adv-x="243" d="M50 46l1 54q1 29 12.5 40t40.5 11h35q29 0 40 -11t11 -40v-64q0 -100 -51 -183l-61 19q14 59 14 128q-40 0 -42 46z" />
<glyph unicode="-" horiz-adv-x="414" d="M58 206v97h298v-97h-298z" />
<glyph unicode="." horiz-adv-x="246" d="M51 52v48q0 29 11.5 40t40.5 11h40q29 0 40.5 -11t11.5 -40v-48q0 -29 -11.5 -40.5t-40.5 -11.5h-40q-29 0 -40.5 11.5t-11.5 40.5z" />
<glyph unicode="/" horiz-adv-x="550" d="M20 -72l393 762h117l-393 -762h-117z" />
<glyph unicode="0" horiz-adv-x="629" d="M49 345q0 198 59 278t206 80q148 0 207 -80t59 -278t-59 -278t-207 -80q-147 0 -206 80t-59 278zM199 345q0 -140 23.5 -188.5t90.5 -48.5q69 0 93 48.5t24 188.5t-24 188.5t-93 48.5q-67 0 -90.5 -48.5t-23.5 -188.5z" />
<glyph unicode="1" horiz-adv-x="429" d="M11 621l173 69h152v-690h-152v486q0 44 6 75l-161 -42z" />
<glyph unicode="2" horiz-adv-x="578" d="M45 0v85q0 39 22 62l169 182q124 129 123 197q-1 29 -22 37.5t-72 8.5q-106 0 -208 -9l-6 115q116 24 232 24t173.5 -34t57.5 -126q0 -62 -22.5 -109.5t-89.5 -118.5l-177 -184q39 7 102 7h207v-137h-489z" />
<glyph unicode="3" horiz-adv-x="566" d="M41 5l6 114q112 -7 190 -7q73 0 100 20.5t27 79.5q0 51 -22 73.5t-84 21.5h-129v104h129q60 0 77.5 22.5t16.5 69.5q0 49 -21 62.5t-86 13.5q-86 0 -184 -4l-7 110q111 18 217 18q123 0 174 -35t51 -125q0 -78 -23 -121t-82 -53v-4q67 -11 94.5 -52.5t28.5 -120.5 q2 -109 -52 -157t-184 -48q-102 0 -237 18z" />
<glyph unicode="4" horiz-adv-x="636" d="M32 264l179 426h144l-164 -397q-7 -17 -1 -25t21 -8h167v186l25 110h116v-296h86v-94l-84 -14h-2v-152h-141v152h-273q-45 0 -67.5 35t-5.5 77z" />
<glyph unicode="5" horiz-adv-x="551" d="M38 10l14 118q111 -12 178 -12q75 0 100.5 22t27.5 76q3 62 -29 80t-132 27l-84 10q-22 2 -35.5 18t-12.5 38l17 303h406l-5 -118h-283l-8 -125l99 -12q119 -13 168.5 -69t49.5 -155q0 -223 -241 -223q-100 0 -230 22z" />
<glyph unicode="6" horiz-adv-x="588" d="M51 338q0 94 12 159t33.5 105t59 62.5t79.5 30t104 7.5q98 0 163 -18l-8 -100q-52 2 -155 2q-78 0 -106.5 -34t-33.5 -147q55 50 152 50q112 0 154.5 -49.5t42.5 -169.5q0 -64 -10 -107t-35.5 -76.5t-74 -49t-122.5 -15.5q-104 0 -157.5 30.5t-75.5 104t-22 215.5z M198 308q1 -130 19 -166.5t90 -36.5q63 0 80 27.5t17 100.5q0 65 -19.5 88t-77.5 23q-54 0 -109 -36z" />
<glyph unicode="7" horiz-adv-x="526" d="M27 690h414q38 0 55.5 -23.5t5.5 -57.5l-209 -609h-150l175 500q12 37 29 65h-314z" />
<glyph unicode="8" horiz-adv-x="619" d="M53 172q0 173 119 184v4q-52 6 -77 49.5t-25 108.5q0 101 49.5 142.5t190.5 41.5t190.5 -41.5t49.5 -142.5q0 -65 -25.5 -108.5t-76.5 -49.5v-4q66 -6 92 -54t26 -130q0 -101 -53 -142.5t-203 -42.5q-149 -1 -203 41.5t-54 143.5zM196 203q0 -58 23 -78t92 -20 q67 0 89 20t22 78q0 62 -21.5 82t-88.5 20q-70 0 -93 -20.5t-23 -81.5zM207 500q0 -53 21 -71t84 -18q62 0 81 17.5t19 71.5q0 56 -19.5 74.5t-81.5 18.5q-63 0 -83.5 -18.5t-20.5 -74.5z" />
<glyph unicode="9" horiz-adv-x="588" d="M42 454q-1 132 53 190t190 58q65 0 107.5 -10.5t71.5 -33t44 -65.5t21 -98.5t6 -142.5q0 -116 -14.5 -187t-51.5 -110.5t-87.5 -53t-133.5 -13.5q-104 0 -177 18l9 101q56 -2 167 -2q78 0 107.5 37.5t33.5 144.5q-56 -52 -153 -52q-193 0 -193 219zM185 457 q-1 -61 19.5 -86.5t75.5 -25.5q52 0 109 38q0 129 -17.5 166t-87.5 37q-62 0 -81 -29t-18 -100z" />
<glyph unicode=":" horiz-adv-x="259" d="M52 52v48q0 29 11.5 40.5t40.5 11.5h40q29 0 40.5 -11.5t11.5 -40.5v-48q0 -29 -11.5 -40.5t-40.5 -11.5h-40q-29 0 -40.5 11.5t-11.5 40.5zM52 351v48q0 29 11.5 40.5t40.5 11.5h40q29 0 40.5 -11.5t11.5 -40.5v-48q0 -29 -11.5 -40t-40.5 -11h-40q-29 0 -40.5 11 t-11.5 40z" />
<glyph unicode=";" horiz-adv-x="259" d="M58 46l2 54q1 29 12.5 40t39.5 11h35q29 0 40 -11t12 -40v-64q-1 -101 -52 -183l-61 19q13 51 15 128q-41 0 -43 46zM59 351v48q0 29 11.5 40.5t40.5 11.5h40q29 0 40.5 -11.5t11.5 -40.5v-48q0 -29 -11.5 -40t-40.5 -11h-40q-29 0 -40.5 11t-11.5 40z" />
<glyph unicode="&#x3c;" horiz-adv-x="518" d="M40 244v114l420 165v-115l-295 -107l295 -107v-115z" />
<glyph unicode="=" horiz-adv-x="579" d="M60 138v105h459v-105h-459zM60 351v105h459v-105h-459z" />
<glyph unicode="&#x3e;" horiz-adv-x="517" d="M57 79v115l295 107l-295 107v115l420 -165v-114z" />
<glyph unicode="?" horiz-adv-x="516" d="M31 688q11 2 40.5 7.5t41.5 7t38.5 4.5t54.5 4t66 1q108 0 161 -38t53 -117q0 -40 -17.5 -74.5t-42.5 -60.5t-51 -53t-46 -65.5t-23 -84.5h-120q-2 60 19 111t47.5 80t50.5 61t26 57q3 33 -19 48.5t-73 15.5q-88 0 -201 -5zM176 52v48q0 29 11.5 40t40.5 11h35 q29 0 40.5 -11t11.5 -40v-48q0 -29 -11.5 -40.5t-40.5 -11.5h-35q-29 0 -40.5 11.5t-11.5 40.5z" />
<glyph unicode="@" horiz-adv-x="756" d="M57 268q0 79 3 126.5t16 88.5t32 61t57 34.5t85 18.5t123 4h152q87 0 130.5 -38.5t43.5 -127.5v-300h-109l-13 69q-28 -32 -74.5 -56t-100.5 -24q-62 0 -101.5 33t-39.5 93v48q0 52 33 81t94 29h174v25q0 34 -14.5 46t-52.5 12h-122q-47 0 -69.5 -1t-47 -9t-33.5 -20 t-18 -39t-10.5 -61.5t-1.5 -92.5q0 -60 1.5 -95t13 -63t20.5 -39.5t41 -19t57 -8t85 -0.5h5h282v-99q-173 -13 -281 -13q-86 0 -139.5 3.5t-97 18t-65.5 35t-36.5 62t-18 90t-3.5 128.5zM394 273q0 -46 48 -46q70 0 120 44v63l-121 -4q-26 -1 -36.5 -10.5t-10.5 -30.5v-16z " />
<glyph unicode="A" horiz-adv-x="650" d="M1 0l199 650q4 18 19 29t34 11h144q43 0 53 -40l199 -650h-155l-50 181h-237l-50 -181h-156zM239 299h172l-58 211q-12 50 -14 65h-27q-2 -11 -7 -33t-8 -32z" />
<glyph unicode="B" horiz-adv-x="637" d="M70 0v690q89 8 259 8q138 0 191 -37.5t53 -142.5q0 -75 -28.5 -113.5t-92.5 -44.5v-4q77 -7 110 -52.5t33 -131.5q0 -104 -53 -142t-181 -38q-192 0 -291 8zM219 107h116q63 0 85 18.5t22 75.5q0 62 -23 83.5t-88 22.5h-112v-200zM219 408h111q56 0 76.5 18t20.5 71 q0 52 -22 69t-83 17l-103 1v-176z" />
<glyph unicode="C" horiz-adv-x="586" d="M47 345q0 197 65 277t225 80q116 0 207 -23l-13 -114q-81 5 -194 5q-75 0 -102.5 -47.5t-27.5 -177.5t27.5 -177.5t102.5 -47.5q139 0 208 9l13 -113q-90 -28 -221 -28q-160 0 -225 80t-65 277z" />
<glyph unicode="D" horiz-adv-x="680" d="M70 0v690q142 9 268 9q165 0 229.5 -76t64.5 -278t-64.5 -278t-229.5 -76q-126 0 -268 9zM222 112q17 0 55.5 -0.5t60.5 -0.5q77 0 105.5 49t28.5 185t-28.5 185.5t-105.5 49.5l-116 -1v-467z" />
<glyph unicode="E" horiz-adv-x="576" d="M64 136v418q1 64 42 101.5t110 37.5q226 0 320 -10l-7 -113h-265q-25 0 -36 -12t-11 -39v-105h275v-110h-275v-133q0 -28 11 -40t36 -12h265l7 -112q-94 -10 -320 -10q-69 0 -110 37.5t-42 101.5z" />
<glyph unicode="F" horiz-adv-x="554" d="M68 0v550q0 66 41.5 104.5t110.5 38.5q220 0 310 -11l-8 -112h-247q-29 0 -41.5 -12t-12.5 -39v-118h264v-111h-264v-290h-153z" />
<glyph unicode="G" horiz-adv-x="645" d="M47 347q0 202 68.5 279t240.5 77q125 0 212 -24l-12 -112q-113 5 -195 5q-46 0 -72.5 -7.5t-46.5 -32.5t-27 -69.5t-7 -120.5q0 -129 24 -177t89 -48q60 0 124 35v246h147v-398h-112l-14 69q-80 -82 -199 -82q-116 0 -168 85t-52 275z" />
<glyph unicode="H" horiz-adv-x="688" d="M70 0v690h152v-264h244v264h152v-690h-152v308h-244v-308h-152z" />
<glyph unicode="I" horiz-adv-x="292" d="M70 0v690h152v-690h-152z" />
<glyph unicode="J" horiz-adv-x="369" d="M20 8l17 102h47q66 0 66 53v527h152v-545q0 -75 -41 -116t-115 -41q-83 0 -126 20z" />
<glyph unicode="K" horiz-adv-x="631" d="M70 0v690h152v-195q0 -44 -7 -82h59l175 277h165l-178 -275q-17 -30 -50 -55v-4q36 -25 58 -61l182 -295h-170l-182 304h-59q7 -40 7 -66v-238h-152z" />
<glyph unicode="L" horiz-adv-x="532" d="M68 144v546h152v-515q0 -27 12.5 -39t41.5 -12h237l7 -116q-101 -11 -292 -11q-80 0 -119 40t-39 107z" />
<glyph unicode="M" horiz-adv-x="911" d="M57 0l25 633q3 57 57 57h147q49 0 60 -49l84 -344q8 -33 18 -97h13q1 5 7.5 41t10.5 56l83 344q12 49 62 49h147q55 0 57 -57l27 -633h-144l-23 571h-17l-104 -427q-10 -49 -62 -49h-100q-52 0 -62 49l-105 427h-17l-20 -571h-144z" />
<glyph unicode="N" horiz-adv-x="722" d="M70 0v635q0 55 55 55h93q23 0 36 -10.5t25 -34.5l175 -357q25 -50 50 -111h10q-6 78 -6 116v397h144v-635q0 -55 -54 -55h-95q-23 0 -36 10.5t-25 34.5l-181 368q-34 73 -42 107h-11q7 -50 7 -110v-410h-145z" />
<glyph unicode="O" horiz-adv-x="684" d="M47 345q0 205 64.5 281.5t230.5 76.5t231 -76.5t65 -281.5t-65 -281.5t-231 -76.5t-230.5 76.5t-64.5 281.5zM207 345q0 -137 28.5 -186t106.5 -49t106.5 49t28.5 186t-28.5 186t-106.5 49t-106.5 -49t-28.5 -186z" />
<glyph unicode="P" horiz-adv-x="614" d="M70 0v690q93 9 262 9q145 0 198.5 -47t53.5 -178t-50.5 -178.5t-181.5 -47.5q-66 0 -130 8v-256h-152zM222 365h107q59 1 80.5 23t21.5 86t-21.5 86t-80.5 22l-107 -1v-216z" />
<glyph unicode="Q" horiz-adv-x="686" d="M47 345q0 205 65 281.5t231 76.5t230.5 -76.5t64.5 -281.5t-64.5 -281.5t-230.5 -76.5t-231 76.5t-65 281.5zM208 345q0 -137 28.5 -186t106.5 -49t106.5 49t28.5 186t-28.5 186t-106.5 49t-106.5 -49t-28.5 -186zM257 -116l36 81q120 -42 300 -68l-43 -136 q-150 37 -293 123z" />
<glyph unicode="R" horiz-adv-x="643" d="M70 0v690q93 9 263 9q139 0 197 -44t58 -160q0 -76 -30.5 -119t-101.5 -52v-5q79 -18 98 -104l60 -215h-161l-52 211q-10 33 -26.5 45.5t-47.5 12.5l-107 1v-270h-150zM220 387h110q60 0 82 20.5t22 77.5t-21.5 77t-82.5 20l-110 -1v-194z" />
<glyph unicode="S" horiz-adv-x="582" d="M43 512q0 114 55.5 152.5t195.5 38.5q133 0 227 -27l-10 -104q-87 3 -216 3q-60 0 -80 -10.5t-20 -52.5q0 -34 15 -49t57 -29l131 -45q80 -28 113 -76.5t33 -126.5q0 -116 -56 -157.5t-200 -41.5q-117 0 -237 26l9 110q213 -5 228 -5q61 0 81.5 13t20.5 54q0 35 -14 49.5 t-51 26.5l-139 49q-77 28 -110 76t-33 126z" />
<glyph unicode="T" horiz-adv-x="601" d="M18 566v124h565v-124h-206v-566h-153v566h-206z" />
<glyph unicode="U" horiz-adv-x="681" d="M65 275v415h152v-415q0 -95 26.5 -130t97.5 -35q70 0 96.5 35t26.5 130v415h153v-415q0 -158 -60.5 -223t-208.5 -65q-156 0 -219.5 65t-63.5 223z" />
<glyph unicode="V" horiz-adv-x="636" d="M7 690h157l125 -498q10 -40 17 -77h25q3 19 17 77l124 498h157l-187 -648q-5 -19 -19.5 -30.5t-34.5 -11.5h-139q-20 0 -34.5 11.5t-19.5 30.5z" />
<glyph unicode="W" horiz-adv-x="973" d="M26 690h156l67 -479q6 -45 9 -100h20q3 28 15 100l74 432q3 21 17.5 34t36.5 13h132q21 0 35.5 -13t17.5 -34l74 -433q12 -74 14 -99h21q4 57 9 98l68 481h155l-109 -648q-4 -19 -19 -30.5t-36 -11.5h-146q-21 0 -36 12t-18 31l-75 451q-8 44 -12 87h-19q0 -3 -4.5 -37 t-7.5 -51l-74 -450q-3 -19 -18.5 -31t-36.5 -12h-146q-20 0 -35.5 11.5t-19.5 30.5z" />
<glyph unicode="X" horiz-adv-x="641" d="M10 0l180 354l-166 336h156l133 -285h15l133 285h156l-166 -336l180 -354h-158l-147 307h-12l-147 -307h-157z" />
<glyph unicode="Y" horiz-adv-x="608" d="M0 690h159l115 -253q10 -22 26 -87h10q12 54 25 87l115 253h157l-226 -462v-228h-153v228z" />
<glyph unicode="Z" horiz-adv-x="583" d="M40 0v117l328 456h-320v117h488v-117l-328 -456h336v-117h-504z" />
<glyph unicode="[" horiz-adv-x="346" d="M76 -88v779q0 34 21.5 55.5t55.5 21.5h160v-92h-80q-19 0 -19 -19v-711q0 -19 19 -19h80v-92h-160q-77 0 -77 77z" />
<glyph unicode="\" horiz-adv-x="551" d="M20 690h118l393 -762h-118z" />
<glyph unicode="]" horiz-adv-x="346" d="M33 -73h80q19 0 19 19v711q0 19 -19 19h-80v92h159q34 0 56 -21.5t22 -55.5v-779q0 -34 -22 -55.5t-56 -21.5h-159v92z" />
<glyph unicode="^" horiz-adv-x="462" d="M30 402l148 225h107l147 -225l-58 -32l-138 165h-8l-141 -165z" />
<glyph unicode="_" horiz-adv-x="557" d="M56 0h445v-97h-445v97z" />
<glyph unicode="`" horiz-adv-x="353" d="M28 634l68 102l201 -148l-43 -64z" />
<glyph unicode="a" horiz-adv-x="567" d="M36 130v50q0 59 40 92t111 33h176v22q-1 38 -17.5 51t-63.5 13q-82 0 -208 -8l-14 100q133 24 257 24q100 0 147 -40.5t47 -140.5v-326h-117l-15 75q-74 -87 -182 -87q-71 0 -116 37.5t-45 104.5zM182 150q0 -51 58 -51q60 0 123 48v69h-133q-48 -1 -48 -47v-19z" />
<glyph unicode="b" horiz-adv-x="592" d="M59 26v674h149v-157q0 -69 -13 -116q78 80 175 80q96 0 138.5 -59.5t42.5 -196.5q0 -127 -52 -195t-189 -68q-60 0 -134.5 10t-116.5 28zM207 107q51 -11 100 -9q51 2 71.5 34t20.5 118q0 82 -17 110.5t-71 28.5q-41 0 -104 -42v-240z" />
<glyph unicode="c" horiz-adv-x="507" d="M40 247q0 143 56 201.5t193 58.5q112 0 182 -31l-16 -92q-108 2 -141 2q-68 0 -93.5 -29t-25.5 -110t25.5 -110t93.5 -29q87 0 151 9l13 -96q-76 -33 -191 -33q-136 0 -191.5 58.5t-55.5 200.5z" />
<glyph unicode="d" horiz-adv-x="594" d="M41 251q0 142 46 199t143 57q95 0 160 -44q-5 55 -5 103v134h148v-700h-117l-12 72q-71 -84 -188 -84q-92 0 -133.5 66.5t-41.5 196.5zM193 252q0 -85 18 -113.5t64 -28.5q31 0 53 8.5t57 31.5v228q-67 19 -105 19q-50 0 -68.5 -28t-18.5 -117z" />
<glyph unicode="e" horiz-adv-x="560" d="M40 246q0 145 57.5 203t193.5 58q123 0 178 -42.5t56 -129.5q0 -69 -35.5 -103.5t-114.5 -34.5h-178q7 -54 32.5 -72.5t84.5 -18.5q79 0 184 11l14 -92q-77 -37 -215 -37q-139 0 -198 60t-59 198zM194 286h140q27 0 36.5 13t9.5 38q0 35 -18 48.5t-66 13.5 q-57 0 -78 -22.5t-24 -90.5z" />
<glyph unicode="f" horiz-adv-x="404" d="M19 394v94l86 5v75q0 152 162 152q105 0 160 -10l-14 -98h-93q-37 0 -51.5 -14t-14.5 -50v-55h136v-99h-136v-394h-149v394h-86z" />
<glyph unicode="g" horiz-adv-x="579" d="M24 -44q0 38 17.5 62.5t60.5 44.5q-34 33 -27.5 81.5t43.5 70.5q-73 34 -73 133q0 87 52 123t181 36q78 0 129 -14h159l-7 -65l-62 -8q12 -28 12 -71q0 -86 -51.5 -122t-180.5 -36q-43 0 -85 5q-12 -16 -4.5 -36t33.5 -23l179 -21q76 -9 109.5 -44t33.5 -103 q0 -94 -56.5 -127t-202.5 -33q-152 0 -206 31.5t-54 115.5zM165 -25q0 -36 22 -46t95 -10t96.5 10.5t23.5 43.5q0 26 -15 33t-66 13l-124 13q-32 -26 -32 -57zM181 349q0 -36 20.5 -50t75.5 -14q54 0 74.5 14t20.5 50q0 37 -20 50t-75 13t-75.5 -13t-20.5 -50z" />
<glyph unicode="h" horiz-adv-x="599" d="M61 0v700h149v-171q0 -51 -9 -103q103 81 202 81q67 0 102.5 -35t35.5 -102v-370h-147v324q0 33 -10.5 45.5t-37.5 12.5q-53 0 -137 -45v-337h-148z" />
<glyph unicode="i" horiz-adv-x="276" d="M62 614v54q0 43 43 43h66q43 0 43 -43v-54q0 -43 -43 -43h-66q-43 0 -43 43zM65 0v493h147v-493h-147z" />
<glyph unicode="j" horiz-adv-x="278" d="M5 -132q61 69 61 155v470h147v-470q0 -69 -34 -128.5t-93 -91.5zM63 618v54q0 43 43 43h65q43 0 43 -43v-54q0 -43 -43 -43h-65q-43 0 -43 43z" />
<glyph unicode="k" horiz-adv-x="557" d="M61 0v700h148v-289q0 -49 -7 -90h46l122 172h166l-128 -171q-16 -27 -46 -47v-2q25 -17 46 -53l145 -220h-166l-138 229h-47q7 -46 7 -74v-155h-148z" />
<glyph unicode="l" horiz-adv-x="327" d="M62 124v576h147v-539q0 -50 56 -50h40l17 -103q-38 -20 -118 -20q-66 0 -104 35.5t-38 100.5z" />
<glyph unicode="m" horiz-adv-x="878" d="M61 0v493h118l10 -72q94 86 188 86q100 0 127 -80q87 80 180 80q67 0 102 -35t35 -102v-370h-147v324q0 32 -11 45t-41 13q-24 0 -46 -9t-64 -35v-338h-142v324q0 32 -12.5 45t-40.5 13q-39 0 -109 -43v-339h-147z" />
<glyph unicode="n" horiz-adv-x="599" d="M61 0v493h120l11 -73q107 87 211 87q67 0 102.5 -35t35.5 -102v-370h-147v324q0 33 -10.5 45.5t-37.5 12.5q-47 0 -137 -45v-337h-148z" />
<glyph unicode="o" horiz-adv-x="587" d="M40 246q0 143 57.5 202t196.5 59q138 0 195.5 -59.5t57.5 -201.5t-57.5 -200.5t-195.5 -58.5q-139 0 -196.5 58.5t-57.5 200.5zM195 246q0 -88 20 -118t79 -30q57 0 77.5 30t20.5 118q0 89 -20 119.5t-78 30.5q-59 0 -79 -30t-20 -120z" />
<glyph unicode="p" horiz-adv-x="600" d="M61 -190v683h120l11 -72q31 37 85.5 61t110.5 24q170 0 170 -264q0 -142 -45.5 -198.5t-142.5 -56.5q-100 0 -165 48q5 -51 3 -106v-119h-147zM208 117q78 -20 112 -20q49 0 67.5 28t18.5 117q0 87 -17 117.5t-60 30.5q-49 0 -121 -47v-226z" />
<glyph unicode="q" horiz-adv-x="591" d="M40 244q0 132 52 197.5t192 65.5q59 0 132.5 -10t115.5 -29v-658h-148v144q0 65 12 112q-87 -79 -179 -79t-134.5 63t-42.5 194zM192 240q0 -73 16.5 -101.5t65.5 -28.5q45 0 111 38v239q-55 12 -101 10q-53 -2 -72.5 -34t-19.5 -123z" />
<glyph unicode="r" horiz-adv-x="425" d="M61 0v493h115l13 -72q101 86 200 86h26l-15 -137h-40q-49 0 -151 -34v-336h-148z" />
<glyph unicode="s" horiz-adv-x="527" d="M37 366q0 77 47.5 109t162.5 32q133 -2 228 -19l-10 -95q-126 2 -190 2q-35 0 -48.5 -0.5t-27 -3.5t-16.5 -9.5t-3 -19.5q0 -5 0.5 -9t2.5 -7.5t3.5 -5.5t5.5 -4.5t6.5 -3.5t9 -3.5t10 -3.5t13 -3.5t14.5 -3.5l126 -34q66 -19 94 -50.5t28 -93.5q0 -88 -51 -119.5 t-175 -31.5q-120 0 -221 17l9 96q36 -2 171 -2q77 0 100.5 6.5t23.5 30.5q0 5 -0.5 9t-2.5 7.5t-4 5.5t-6.5 4.5t-7 4t-9.5 4t-11 3.5t-13.5 3.5t-15.5 4.5l-123 33q-68 20 -94 54.5t-26 95.5z" />
<glyph unicode="t" horiz-adv-x="411" d="M19 394v94l87 5v138h147v-138h137v-99h-137v-233q0 -28 12 -39t42 -11h63l16 -103q-57 -20 -139 -20q-67 0 -104 37.5t-37 104.5v264h-87z" />
<glyph unicode="u" horiz-adv-x="590" d="M58 124v369h148v-324q-1 -32 11 -45t42 -13q43 0 123 41v341h147v-493h-117l-11 68q-102 -81 -204 -81q-139 0 -139 137z" />
<glyph unicode="v" horiz-adv-x="563" d="M7 493h157l89 -309q11 -40 21 -88h13q12 47 27 101.5t27.5 97t29.5 100.5t28 98h156l-162 -458q-12 -35 -48 -35h-128q-36 0 -48 35z" />
<glyph unicode="w" horiz-adv-x="847" d="M16 493h149l67 -320q10 -54 12 -81h13q2 14 6.5 41t6.5 40l50 276q7 44 51 44h104q20 0 34.5 -12t17.5 -33l49 -275q2 -14 7 -41t7 -40h12l12 81l68 320h149l-121 -454q-10 -39 -51 -39h-116q-20 0 -35 12.5t-18 32.5l-50 279q-1 9 -4.5 38t-6.5 45h-12 q-8 -55 -18 -115.5t-23 -133.5t-20 -113q-3 -20 -18 -32.5t-36 -12.5h-114q-41 0 -51 39z" />
<glyph unicode="x" horiz-adv-x="564" d="M10 0l152 253l-141 240h151l105 -190h10l105 190h151l-141 -240l152 -253h-152l-117 207h-6l-117 -207h-152z" />
<glyph unicode="y" horiz-adv-x="562" d="M7 493h158l92 -319q9 -35 15 -74h13q3 12 10 37.5t10 36.5l91 319h158l-175 -500q-14 -40 -34.5 -74t-52.5 -65.5t-79.5 -46.5t-105.5 -8l-12 87q60 16 94 41.5t53 68.5l2 4h-28q-37 0 -48 36z" />
<glyph unicode="z" horiz-adv-x="525" d="M40 0v106l272 282h-267v105h435v-105l-271 -282h276v-106h-445z" />
<glyph unicode="{" horiz-adv-x="339" d="M34 280v96l27 9t14.5 10t9.5 19t1 33v182q0 77 53 115t164 24v-91q-45 0 -60.5 -12.5t-15.5 -49.5v-151q1 -65 -20.5 -95.5t-82.5 -40.5q61 -17 83.5 -47t23.5 -85v-210q0 -37 15.5 -48.5t60.5 -11.5v-91q-111 -14 -164 24t-53 115v239q0 18 -2 28t-12 18t-15 10t-27 11z " />
<glyph unicode="|" horiz-adv-x="261" d="M78 -169v950h104v-950h-104z" />
<glyph unicode="}" horiz-adv-x="340" d="M33 -74q45 0 60.5 11.5t15.5 48.5v210q1 55 23.5 85t83.5 47q-60 10 -82 40.5t-21 95.5v151q0 37 -15.5 49.5t-60.5 12.5v91q111 14 164 -24t53 -115v-182q0 -22 1 -33t9.5 -19t14.5 -10l27 -9v-96q-39 -16 -46 -25q-10 -13 -10 -42v-239q0 -77 -53 -115t-164 -24v91z " />
<glyph unicode="~" horiz-adv-x="513" d="M62 217q-11 72 13 109.5t68 36.5q32 -2 111 -25.5t95 -25.5q23 -4 29.5 6t6.5 40h67q11 -71 -12.5 -109t-68.5 -36q-35 1 -113 24.5t-94 25.5q-23 4 -29 -6t-6 -40h-67z" />
<glyph unicode="&#xa2;" horiz-adv-x="521" d="M39 348q0 137 52 196t176 63l9 83h111l-10 -88q57 -9 95 -25l-16 -90q-72 4 -142 4q-74 0 -101.5 -29.5t-27.5 -113.5t27.5 -113.5t101.5 -29.5q87 0 152 8l13 -91q-68 -29 -158 -32l-10 -90h-111l10 94q-92 14 -131.5 73t-39.5 181z" />
<glyph unicode="&#xa3;" horiz-adv-x="585" d="M46 402h73l-8 113q-6 110 42.5 148.5t162.5 38.5q90 0 206 -10l-8 -114q-43 1 -179 1q-45 0 -61.5 -15t-13.5 -55l9 -107h179l-4 -77h-169l3 -42q4 -64 -13.5 -99t-58.5 -68q25 7 76 7h262v-123h-494v123q86 39 77 160l-3 42h-77z" />
<glyph unicode="&#xa5;" horiz-adv-x="658" d="M25 690h157l116 -237q5 -9 27 -88h10q22 77 27 88l113 237h157l-167 -329h102v-94h-472l-1 94h100zM94 236h473v-93h-162v-143h-151v143h-159z" />
<glyph unicode="&#xa8;" horiz-adv-x="424" d="M65 617v58q0 33 32 33h49q32 0 32 -33v-58q0 -33 -32 -33h-49q-32 0 -32 33zM246 617v58q0 33 33 33h48q33 0 33 -33v-58q0 -33 -33 -33h-48q-33 0 -33 33z" />
<glyph unicode="&#xa9;" horiz-adv-x="810" d="M43 345q0 155 104.5 256.5t257.5 101.5q154 0 258 -101.5t104 -256.5t-104 -256.5t-258 -101.5q-153 0 -257.5 101.5t-104.5 256.5zM118 345q0 -123 84 -205t203 -82q120 0 203.5 82t83.5 205t-83.5 205t-203.5 82q-119 0 -203 -82t-84 -205zM215 347q0 114 44 160.5 t151 46.5q79 0 136 -14l-9 -80q-86 2 -128 2q-48 0 -64.5 -23.5t-16.5 -91.5q0 -69 16 -92t65 -23q97 0 138 4l9 -80q-63 -18 -146 -18q-107 0 -151 47t-44 162z" />
<glyph unicode="&#xab;" horiz-adv-x="518" d="M34 235v32l158 198l78 -50l-105 -164l106 -169l-78 -49zM241 235v32l159 198l78 -50l-106 -164l106 -169l-77 -49z" />
<glyph unicode="&#xad;" horiz-adv-x="414" d="M58 206v97h298v-97h-298z" />
<glyph unicode="&#xae;" horiz-adv-x="523" d="M39 481q0 92 65 157t158 65q92 0 157 -65t65 -157q0 -93 -65 -158t-157 -65q-93 0 -158 65t-65 158zM84 481q0 -75 52 -127.5t126 -52.5q73 0 125.5 52.5t52.5 127.5q0 74 -52.5 126.5t-125.5 52.5q-74 0 -126 -52.5t-52 -126.5zM163 367v233q33 3 106 3q56 0 79.5 -15 t23.5 -54q0 -51 -54 -56v-2q32 -4 40 -37l24 -72h-67l-19 70q-8 19 -30 19h-41v-89h-62zM225 497h42q25 1 33.5 7.5t8.5 23.5q0 18 -8.5 24t-33.5 6h-42v-61z" />
<glyph unicode="&#xb4;" horiz-adv-x="353" d="M48 588l201 148l68 -102l-225 -110z" />
<glyph unicode="&#xb8;" horiz-adv-x="248" d="M24 -238l19 65q82 -2 86 58q1 13 -10.5 16t-52.5 3l14 58q83 9 114.5 -3t29.5 -62q-3 -73 -59 -109.5t-141 -25.5z" />
<glyph unicode="&#xbb;" horiz-adv-x="518" d="M40 82l106 169l-105 164l77 50l159 -198v-32l-159 -202zM248 82l106 169l-106 164l78 50l159 -198v-32l-160 -202z" />
<glyph unicode="&#x2c6;" horiz-adv-x="448" d="M38 592l134 131h107l132 -134l-41 -55l-141 94h-8l-142 -94z" />
<glyph unicode="&#x2da;" horiz-adv-x="309" d="M37 643q0 49 34.5 82.5t83.5 33.5q48 0 83 -34t35 -82t-34.5 -81t-83.5 -33t-83.5 33t-34.5 81zM105 643q0 -23 14.5 -37t35.5 -14t35.5 14t14.5 37t-14.5 37.5t-35.5 14.5q-22 0 -36 -14.5t-14 -37.5z" />
<glyph unicode="&#x2dc;" horiz-adv-x="440" d="M49 570q-11 71 14 108t67 34q35 -3 85.5 -24t73.5 -24q24 -4 31.5 6t7.5 37h63q11 -68 -13 -106t-68 -35q-38 3 -90.5 25t-69.5 25q-24 3 -31 -7t-7 -39h-63z" />
<glyph unicode="&#x401;" horiz-adv-x="577" d="M65 136v418q0 64 41.5 101.5t109.5 37.5q227 0 320 -10l-6 -113h-266q-25 0 -36 -12t-11 -39v-105h275v-110h-275v-133q0 -28 11 -40t36 -12h266l6 -112q-93 -10 -320 -10q-69 0 -110 37.5t-41 101.5zM167 807v58q0 33 32 33h49q32 0 32 -33v-58q0 -32 -32 -32h-49 q-32 0 -32 32zM348 807v58q0 33 33 33h48q33 0 33 -33v-58q0 -32 -33 -32h-48q-33 0 -33 32z" />
<glyph unicode="&#x402;" horiz-adv-x="763" d="M18 566v124h563v-124h-205v-162q87 45 182 45q87 0 131 -45t44 -167q0 -137 -69.5 -193.5t-195.5 -53.5l-14 108q71 9 99 36t28 93q0 63 -16.5 80.5t-63.5 17.5q-63 0 -125 -28v-297h-153v566h-205z" />
<glyph unicode="&#x403;" horiz-adv-x="533" d="M69 0v546q0 65 41 106t104 41q216 0 306 -11l-7 -112h-237q-29 0 -41.5 -12.5t-12.5 -42.5v-515h-153zM214 786l201 149l68 -103l-225 -109z" />
<glyph unicode="&#x404;" horiz-adv-x="590" d="M47 345q0 197 66 277t229 80q119 0 210 -23l-13 -114q-108 5 -197 5q-69 0 -99.5 -34.5t-36.5 -122.5h280v-106h-282q4 -107 33.5 -147t104.5 -40q128 0 202 10l13 -114q-87 -28 -215 -28q-163 0 -229 80t-66 277z" />
<glyph unicode="&#x405;" horiz-adv-x="582" d="M43 512q0 114 55.5 152.5t195.5 38.5q133 0 227 -27l-10 -104q-87 3 -216 3q-60 0 -80 -10.5t-20 -52.5q0 -34 15 -49t57 -29l131 -45q80 -28 113 -76.5t33 -126.5q0 -116 -56 -157.5t-200 -41.5q-117 0 -237 26l9 110q213 -5 228 -5q61 0 81.5 13t20.5 54q0 35 -14 49.5 t-51 26.5l-139 49q-77 28 -110 76t-33 126z" />
<glyph unicode="&#x406;" horiz-adv-x="295" d="M72 0v690h151v-690h-151z" />
<glyph unicode="&#x407;" horiz-adv-x="295" d="M-1 795v58q0 33 33 33h48q33 0 33 -33v-58q0 -33 -33 -33h-48q-33 0 -33 33zM72 0v690h151v-690h-151zM181 795v58q0 33 33 33h48q33 0 33 -33v-58q0 -33 -33 -33h-48q-33 0 -33 33z" />
<glyph unicode="&#x408;" horiz-adv-x="370" d="M20 8l17 102h47q66 0 66 53v527h152v-545q0 -75 -41 -116t-115 -41q-83 0 -126 20z" />
<glyph unicode="&#x409;" horiz-adv-x="976" d="M16 101q33 9 55.5 27t40.5 60q22 50 32 121.5t19 199.5q1 22 2 33q9 148 162 148h272v-256h94q141 0 195.5 -47.5t54.5 -173.5t-51 -173.5t-173 -47.5q-173 0 -269 8h-1v580h-85q-48 0 -54 -58q-14 -159 -25 -235.5t-33 -139.5q-31 -89 -83.5 -122t-141.5 -28zM599 110 h94q60 0 78 20.5t18 86.5q0 65 -18 87.5t-78 22.5h-94v-217z" />
<glyph unicode="&#x40a;" horiz-adv-x="976" d="M72 0v690h152v-263h224v263h151v-263h98q139 0 192.5 -46.5t53.5 -169.5q0 -125 -50 -172t-169 -47q-178 0 -273 8h-3v316h-224v-316h-152zM599 110h98q57 0 74.5 20t17.5 83t-17.5 85t-74.5 22h-98v-210z" />
<glyph unicode="&#x40b;" horiz-adv-x="786" d="M18 566v124h563v-124h-205v-156q101 43 193 43q90 0 132.5 -41t42.5 -127v-285h-153v253q0 41 -16 56t-61 15q-66 0 -138 -25v-299h-153v566h-205z" />
<glyph unicode="&#x40c;" horiz-adv-x="638" d="M72 0v690h152v-195q0 -39 -8 -82h47q71 0 102.5 54t77.5 213q2 7 3 10h155q-56 -176 -71 -209q-35 -78 -88 -103q-25 -11 -60 -16v-4q19 -3 35 -6.5t30.5 -11.5t25.5 -14t22.5 -21.5t19 -24.5t18 -33t16.5 -37.5t17.5 -47.5t17.5 -52.5t20 -62.5q10 -31 15 -47h-159 q-56 183 -76 224q-31 63 -78 75q-18 5 -41 5h-49q8 -37 8 -66v-238h-152zM243 786l202 149l67 -103l-225 -109z" />
<glyph unicode="&#x40d;" horiz-adv-x="711" d="M72 0v690h145v-405q0 -43 -8 -96h6q13 38 40 90l233 411h151v-690h-146v412q0 46 9 93h-7q-15 -46 -39 -91l-233 -414h-151zM164 832l67 103l201 -149l-43 -63z" />
<glyph unicode="&#x40e;" horiz-adv-x="592" d="M7 690h156l109 -365q3 -12 18 -12h25l119 377h156l-169 -512q-30 -91 -68 -136.5t-106 -51.5t-166 15l17 108q97 -5 123.5 3.5t45.5 57.5l8 22h-37q-67 0 -89 69zM133 891l70 10q0 -64 95 -64q93 0 93 64l70 -10q8 -63 -37.5 -107t-125.5 -44q-81 0 -127 44t-38 107z" />
<glyph unicode="&#x40f;" horiz-adv-x="694" d="M72 0v690h152v-580h246v580h153v-690h-214l-6 -151h-104l-7 151h-220z" />
<glyph unicode="&#x410;" horiz-adv-x="650" d="M1 0l199 650q4 18 19 29t34 11h144q43 0 53 -40l199 -650h-155l-50 181h-237l-50 -181h-156zM239 299h172l-58 211q-12 50 -14 65h-27q-2 -11 -7 -33t-8 -32z" />
<glyph unicode="&#x411;" horiz-adv-x="619" d="M71 0v690q112 7 235 7q100 0 235 -7l-12 -117h-305v-163h105q143 0 199 -45.5t56 -164.5q0 -67 -15 -109t-50 -63.5t-78 -29t-113 -7.5q-144 0 -253 9h-4zM224 108h105q63 0 82.5 19t19.5 79q0 59 -19.5 79.5t-82.5 20.5h-105v-198z" />
<glyph unicode="&#x412;" horiz-adv-x="639" d="M71 0v690q90 8 260 8q137 0 190 -37.5t53 -142.5q0 -75 -28 -113.5t-92 -44.5v-4q77 -7 109.5 -52.5t32.5 -131.5q0 -104 -53 -142t-180 -38q-191 0 -292 8zM220 107h116q64 0 86 18.5t22 75.5q0 62 -23 83.5t-88 22.5h-113v-200zM220 408h112q55 0 75.5 18t20.5 71 q0 52 -21.5 69t-83.5 17l-103 1v-176z" />
<glyph unicode="&#x413;" horiz-adv-x="533" d="M69 0v546q0 65 41 106t104 41q216 0 306 -11l-7 -112h-237q-29 0 -41.5 -12.5t-12.5 -42.5v-515h-153z" />
<glyph unicode="&#x414;" horiz-adv-x="737" d="M17 110h73q71 177 90 436q5 65 48 104.5t113 39.5h283v-580h90v-261h-108l-12 151h-457l-12 -151h-108v261zM233 110h239v470h-89q-30 0 -43.5 -13.5t-15.5 -45.5q-12 -145 -32 -238t-59 -173z" />
<glyph unicode="&#x415;" horiz-adv-x="577" d="M65 136v418q0 64 41.5 101.5t109.5 37.5q227 0 320 -10l-6 -113h-266q-25 0 -36 -12t-11 -39v-105h275v-110h-275v-133q0 -28 11 -40t36 -12h266l6 -112q-93 -10 -320 -10q-69 0 -110 37.5t-41 101.5z" />
<glyph unicode="&#x416;" horiz-adv-x="938" d="M19 0q60 195 82 241q35 77 91 101q25 11 61 16v4q-25 3 -45.5 11t-35.5 17t-29 29t-23.5 35.5t-22 50t-20 58t-22.5 72.5q-11 36 -17 55h155q54 -170 74 -209q41 -64 89 -68h49q-8 43 -8 82v195h146v-195q0 -39 -8 -82h45q53 0 80 49t74 194q2 7 3.5 11t3.5 11t4 12h155 q-55 -176 -71 -212q-34 -77 -88 -101q-24 -11 -56 -15v-4q91 -12 127.5 -71t96.5 -256q7 -20 10 -31h-160q-5 17 -15 47q-54 166 -77 205q-36 50 -86 52h-46q8 -37 8 -66v-238h-146v238q0 29 8 66h-49q-55 0 -82 -47.5t-79 -206.5q-10 -32 -16 -50h-160z" />
<glyph unicode="&#x417;" horiz-adv-x="565" d="M29 22l11 105q120 -19 224 -19q59 0 79.5 18.5t20.5 74.5q0 60 -21.5 81t-82.5 23h-133v107h132q52 0 71 17.5t19 67.5q0 51 -20.5 68t-76.5 17q-78 0 -197 -13l-12 110q90 19 219 19q134 0 186 -37.5t52 -142.5q0 -75 -28 -113.5t-90 -44.5v-4q75 -7 107 -52.5 t32 -131.5q0 -103 -52 -141.5t-176 -38.5q-160 0 -264 30z" />
<glyph unicode="&#x418;" horiz-adv-x="711" d="M72 0v690h145v-405q0 -43 -8 -96h6q13 38 40 90l233 411h151v-690h-146v412q0 46 9 93h-7q-15 -46 -39 -91l-233 -414h-151z" />
<glyph unicode="&#x419;" horiz-adv-x="711" d="M72 0v690h145v-405q0 -43 -8 -96h6q13 38 40 90l233 411h151v-690h-146v412q0 46 9 93h-7q-15 -46 -39 -91l-233 -414h-151zM196 895h98q-4 -82 67 -82q69 0 65 82h98q8 -64 -37 -109.5t-126 -45.5t-127 45.5t-38 109.5z" />
<glyph unicode="&#x41a;" horiz-adv-x="638" d="M72 0v690h152v-195q0 -39 -8 -82h47q71 0 102.5 54t77.5 213q2 7 3 10h155q-56 -176 -71 -209q-35 -78 -88 -103q-25 -11 -60 -16v-4q19 -3 35 -6.5t30.5 -11.5t25.5 -14t22.5 -21.5t19 -24.5t18 -33t16.5 -37.5t17.5 -47.5t17.5 -52.5t20 -62.5q10 -31 15 -47h-159 q-56 183 -76 224q-31 63 -78 75q-18 5 -41 5h-49q8 -37 8 -66v-238h-152z" />
<glyph unicode="&#x41b;" horiz-adv-x="678" d="M4 115q39 7 62.5 23t36.5 50q20 53 31 128.5t23 223.5q11 150 162 150h288v-690h-153v580h-88q-59 0 -63 -58q-13 -155 -24.5 -236t-34.5 -139q-61 -170 -229 -150z" />
<glyph unicode="&#x41c;" horiz-adv-x="914" d="M59 0l25 633q2 57 57 57h147q48 0 60 -49l84 -344q4 -20 10.5 -56t7.5 -41h13q1 5 7.5 41t10.5 56l83 344q11 49 62 49h147q54 0 57 -57l26 -633h-144l-22 571h-18l-104 -427q-10 -49 -61 -49h-100q-51 0 -63 49l-105 427h-17l-20 -571h-143z" />
<glyph unicode="&#x41d;" horiz-adv-x="692" d="M72 0v690h152v-264h243v264h153v-690h-153v308h-243v-308h-152z" />
<glyph unicode="&#x41e;" horiz-adv-x="684" d="M47 345q0 205 64.5 281.5t230.5 76.5t231 -76.5t65 -281.5t-65 -281.5t-231 -76.5t-230.5 76.5t-64.5 281.5zM207 345q0 -137 28.5 -186t106.5 -49t106.5 49t28.5 186t-28.5 186t-106.5 49t-106.5 -49t-28.5 -186z" />
<glyph unicode="&#x41f;" horiz-adv-x="690" d="M72 0v690h546v-690h-152v580h-242v-580h-152z" />
<glyph unicode="&#x420;" horiz-adv-x="616" d="M71 0v690q93 9 263 9q144 0 197.5 -47t53.5 -178t-50.5 -178.5t-180.5 -47.5q-66 0 -130 8v-256h-153zM224 365h106q60 1 81 23t21 86t-21 86t-81 22l-106 -1v-216z" />
<glyph unicode="&#x421;" horiz-adv-x="586" d="M47 345q0 197 65 277t225 80q116 0 207 -23l-13 -114q-81 5 -194 5q-75 0 -102.5 -47.5t-27.5 -177.5t27.5 -177.5t102.5 -47.5q139 0 208 9l13 -113q-90 -28 -221 -28q-160 0 -225 80t-65 277z" />
<glyph unicode="&#x422;" horiz-adv-x="601" d="M18 566v124h565v-124h-206v-566h-153v566h-206z" />
<glyph unicode="&#x423;" horiz-adv-x="592" d="M7 690h156l109 -365q3 -12 18 -12h25l119 377h156l-169 -512q-30 -91 -68 -136.5t-106 -51.5t-166 15l17 108q97 -5 123.5 3.5t45.5 57.5l8 22h-37q-67 0 -89 69z" />
<glyph unicode="&#x424;" horiz-adv-x="843" d="M32 353q0 156 70 221.5t243 74.5v90h153v-90q173 -9 243 -74.5t71 -221.5q-1 -151 -70.5 -215t-243.5 -74v-90h-153v90q-173 9 -243 73.5t-70 215.5zM186 353q0 -94 34 -130t132 -43v353q-98 -6 -132 -43.5t-34 -136.5zM491 180q98 7 132 43.5t34 129.5q0 98 -34 135.5 t-132 44.5v-353z" />
<glyph unicode="&#x425;" horiz-adv-x="641" d="M10 0l180 354l-166 336h156l133 -285h15l133 285h156l-166 -336l180 -354h-158l-147 307h-12l-147 -307h-157z" />
<glyph unicode="&#x426;" horiz-adv-x="712" d="M72 0v690h152v-580h230v580h153v-580h82v-261h-108l-12 151h-497z" />
<glyph unicode="&#x427;" horiz-adv-x="657" d="M48 401v289h152v-256q-1 -39 16 -55t61 -16q77 0 156 31v296h152v-690h-152v286q-107 -52 -211 -52q-89 0 -131.5 40.5t-42.5 126.5z" />
<glyph unicode="&#x428;" horiz-adv-x="971" d="M72 0v690h149v-580h190v580h149v-580h190v580h149v-690h-827z" />
<glyph unicode="&#x429;" horiz-adv-x="999" d="M72 0v690h149v-580h188v580h148v-580h189v580h148v-580h81v-261h-107l-12 151h-784z" />
<glyph unicode="&#x42a;" horiz-adv-x="763" d="M17 566v124h365v-256h98q142 0 196 -48t54 -175q0 -125 -51 -172t-173 -47q-179 0 -275 8h-2v566h-212zM382 110h98q60 0 78.5 20.5t18.5 85.5t-18.5 88t-78.5 23h-98v-217z" />
<glyph unicode="&#x42b;" horiz-adv-x="897" d="M72 0v690h152v-256h100q142 0 196.5 -48t54.5 -175q0 -125 -51 -172t-174 -47q-179 0 -274 8h-4zM224 110h100q61 0 79 20.5t18 85.5t-18.5 88t-78.5 23h-100v-217zM673 0v690h152v-690h-152z" />
<glyph unicode="&#x42c;" horiz-adv-x="611" d="M72 0v690h152v-256h102q142 0 196.5 -48t54.5 -175q0 -125 -51 -172t-174 -47q-181 0 -276 8h-4zM224 110h102q61 0 79.5 20.5t18.5 85.5t-18.5 88t-79.5 23h-102v-217z" />
<glyph unicode="&#x42d;" horiz-adv-x="590" d="M33 16l13 114q74 -10 202 -10q75 0 104.5 40t33.5 147h-282v106h280q-6 88 -36.5 122.5t-99.5 34.5q-89 0 -197 -5l-13 114q91 23 210 23q163 0 229 -80t66 -277t-66 -277t-229 -80q-128 0 -215 28z" />
<glyph unicode="&#x42e;" horiz-adv-x="971" d="M72 0v690h153v-278h128q9 165 71 228t205 63q165 0 230 -76.5t65 -281.5t-65 -281.5t-230 -76.5q-148 0 -209.5 68t-67.5 247h-127v-302h-153zM501 345q0 -137 26.5 -186t101.5 -49q77 0 105 49t29 186q-1 137 -29 186t-105 49q-75 0 -101.5 -49t-26.5 -186z" />
<glyph unicode="&#x42f;" horiz-adv-x="635" d="M29 0l56 211q20 86 104 102l-1 6q-71 9 -101.5 52.5t-30.5 123.5q0 112 57.5 158t190.5 46q168 0 260 -9v-690h-152v265h-101q-58 0 -71 -59l-51 -206h-160zM209 485q0 -57 21.5 -80t77.5 -23h104v199l-104 1q-57 0 -77.5 -20t-21.5 -77z" />
<glyph unicode="&#x430;" horiz-adv-x="571" d="M38 130v50q0 59 40 92t111 33h176v22q-1 37 -17.5 50.5t-63.5 13.5q-81 0 -209 -8l-13 100q133 24 256 24q100 0 147.5 -40.5t47.5 -140.5v-326h-117l-15 75q-74 -87 -183 -87q-71 0 -115.5 37.5t-44.5 104.5zM184 150q0 -51 57 -51q59 0 124 48v69h-133q-48 -1 -48 -47 v-19z" />
<glyph unicode="&#x431;" horiz-adv-x="593" d="M53 303q0 81 7 136.5t26 106t55.5 83.5t93.5 51q37 12 125.5 23t138.5 37l27 -114q-40 -23 -80 -31t-85 -11.5t-76 -12.5q-82 -22 -107 -101q-9 -24 -17 -73h3q29 39 68.5 59.5t110.5 20.5q114 0 161 -54.5t47 -179.5q0 -131 -54.5 -193t-190.5 -62q-51 0 -90 8.5 t-65.5 22t-45 38t-29 47.5t-15.5 59.5t-6.5 65.5t-1.5 74zM206 243q0 -85 20 -115t75 -30t75 29.5t20 114.5q0 80 -18.5 106.5t-72.5 26.5q-61 0 -80 -28.5t-19 -103.5z" />
<glyph unicode="&#x432;" horiz-adv-x="570" d="M62 -2v495q85 6 236 6q122 0 169 -27.5t47 -103.5q0 -53 -25.5 -80.5t-82.5 -31.5v-4q68 -5 97 -37t29 -93q0 -74 -47 -102t-159 -28q-169 0 -264 6zM201 95h100q48 0 66 11.5t18 46.5q0 33 -19 45.5t-68 12.5h-97v-116zM201 297h97q45 0 61.5 11t16.5 42q0 28 -18 38 t-67 10l-90 1v-102z" />
<glyph unicode="&#x433;" horiz-adv-x="480" d="M60 0v380q0 119 127 119q198 0 279 -13l-6 -103h-208q-24 0 -34.5 -10.5t-10.5 -34.5v-338h-147z" />
<glyph unicode="&#x434;" horiz-adv-x="629" d="M21 106h62q44 113 61 267q12 120 141 120h242v-387h78v-247h-97l-11 141h-369l-10 -141h-97v247zM213 106h175v287h-64q-45 0 -50 -47q-17 -147 -61 -240z" />
<glyph unicode="&#x435;" horiz-adv-x="563" d="M41 246q0 144 58 202.5t193 58.5q123 0 178 -42.5t56 -129.5q0 -69 -35.5 -103.5t-114.5 -34.5h-178q7 -54 33 -72.5t84 -18.5q79 0 184 11l14 -92q-77 -37 -215 -37q-139 0 -198 60t-59 198zM195 286h140q28 0 37 13t9 38q0 35 -18 48.5t-66 13.5q-57 0 -78 -22.5 t-24 -90.5z" />
<glyph unicode="&#x436;" horiz-adv-x="822" d="M21 0q16 49 23 71t19 54.5t18 44t18 30t21 24t24 14.5t30.5 12t38.5 6v4q-74 9 -100 43.5t-67 158.5q-6 20 -10 31h145q41 -119 62 -153t64 -34h46q-6 29 -6 59v128h130v-128q0 -31 -6 -59h43q44 0 64 33t62 154h146q-46 -138 -62 -168q-26 -45 -75 -58q-16 -4 -39 -7v-4 q22 -3 37.5 -6.5t30.5 -11.5t24.5 -14.5t21 -24t18 -30.5t18 -43.5t19 -54.5t22.5 -71h-149q-49 140 -69 173t-63 33h-49q6 -23 6 -43v-163h-130v163q0 18 5 43h-51q-41 0 -60.5 -32.5t-70.5 -173.5h-149z" />
<glyph unicode="&#x437;" horiz-adv-x="517" d="M29 8l10 102q108 -10 200 -10q53 0 70 9.5t17 42.5q0 30 -17.5 39.5t-68.5 10.5l-142 2v93l141 2q44 0 59.5 9.5t15.5 39.5q0 27 -18 35t-72 8q-92 0 -170 -10l-10 102q73 22 173 22q137 0 189 -26t52 -108q0 -57 -24 -84t-81 -31v-4q66 -5 95.5 -36.5t29.5 -92.5 q0 -82 -51.5 -108.5t-176.5 -26.5q-129 0 -221 20z" />
<glyph unicode="&#x438;" d="M63 0v493h131v-263q0 -28 -5 -73h3q13 33 37 67l188 269h126v-494h-132v258q0 29 5 79h-4q-11 -36 -37 -73l-186 -263h-126z" />
<glyph unicode="&#x439;" d="M63 0v493h131v-263q0 -28 -5 -73h3q13 33 37 67l188 269h126v-494h-132v258q0 29 5 79h-4q-11 -36 -37 -73l-186 -263h-126zM138 712h98q-4 -82 67 -82q69 0 65 82h98q8 -63 -37.5 -109t-125.5 -46q-81 0 -127.5 46t-37.5 109z" />
<glyph unicode="&#x43a;" horiz-adv-x="564" d="M63 0v493h147v-126q0 -30 -6 -60h37q57 0 79 32.5t57 153.5h150q-3 -10 -9 -28q-40 -123 -60 -153q-26 -38 -83 -49q-10 -2 -24 -4v-4q30 -4 49 -8.5t37 -18.5t27.5 -26t24.5 -46.5t24.5 -63.5t29.5 -92h-154q-44 140 -65 172t-74 32h-45q5 -25 5 -42v-162h-147z" />
<glyph unicode="&#x43b;" horiz-adv-x="591" d="M12 105q41 7 58.5 16.5t25.5 36.5q19 56 32 210q12 125 137 125h263v-493h-148v390h-64q-25 0 -36.5 -11t-15.5 -38q-21 -166 -36 -224q-30 -142 -201 -122z" />
<glyph unicode="&#x43c;" horiz-adv-x="783" d="M55 0l15 442q0 51 52 51h132q46 0 55 -46l62 -218q5 -19 14 -73h11q1 5 5.5 32t8.5 41l61 218q9 46 56 46h134q50 0 52 -51l16 -442h-135l-14 385h-14l-80 -276q-11 -46 -55 -46h-80q-46 0 -57 46l-79 276h-14l-12 -385h-134z" />
<glyph unicode="&#x43d;" horiz-adv-x="604" d="M63 0v493h146v-181h187v181h145v-493h-145v209h-187v-209h-146z" />
<glyph unicode="&#x43e;" horiz-adv-x="589" d="M41 246q0 143 57.5 202t196.5 59t196 -59t57 -202q0 -142 -57 -200.5t-196 -58.5t-196.5 58.5t-57.5 200.5zM196 246q0 -88 20 -118t79 -30q58 0 78.5 30t20.5 118q0 89 -20.5 119.5t-78.5 30.5q-59 0 -79 -30t-20 -120z" />
<glyph unicode="&#x43f;" horiz-adv-x="595" d="M63 0v494h469v-494h-143v388h-182v-388h-144z" />
<glyph unicode="&#x440;" horiz-adv-x="603" d="M63 -190v683h120l11 -72q31 37 85.5 61t110.5 24q171 0 171 -264q0 -142 -46 -198.5t-143 -56.5q-100 0 -165 48q5 -51 3 -106v-119h-147zM210 117q78 -20 112 -20q50 0 68.5 28t18.5 117q0 87 -17 117.5t-60 30.5q-50 0 -122 -47v-226z" />
<glyph unicode="&#x441;" horiz-adv-x="509" d="M41 247q0 143 56 201.5t193 58.5q112 0 182 -31l-16 -92q-108 2 -141 2q-68 0 -93.5 -29t-25.5 -110t25.5 -110t93.5 -29q88 0 151 9l14 -96q-77 -33 -192 -33q-136 0 -191.5 58.5t-55.5 200.5z" />
<glyph unicode="&#x442;" horiz-adv-x="513" d="M20 379v114h474v-114h-164v-379h-146v379h-164z" />
<glyph unicode="&#x443;" horiz-adv-x="565" d="M9 493h157l92 -319q12 -46 16 -74h12q16 57 20 74l91 319h158l-175 -500q-39 -122 -135 -171q-74 -42 -202 -20l12 98q91 -3 129 20q39 23 62 80h-28q-38 0 -49 36z" />
<glyph unicode="&#x444;" horiz-adv-x="748" d="M40 246q0 129 61.5 189t205.5 70v195h133v-195q144 -10 205.5 -70t61.5 -189q0 -128 -61.5 -187t-205.5 -69v-180h-133v180q-144 10 -205.5 69t-61.5 187zM181 246q0 -78 28.5 -110t103.5 -39v301q-75 -7 -103.5 -40t-28.5 -112zM434 97q75 7 103.5 39t28.5 110 q0 79 -28.5 112t-103.5 40v-301z" />
<glyph unicode="&#x445;" horiz-adv-x="566" d="M11 0l152 253l-140 240h151l105 -190h9l105 190h151l-140 -240l151 -253h-152l-117 207h-6l-117 -207h-152z" />
<glyph unicode="&#x446;" horiz-adv-x="625" d="M63 0v493h146v-387h171v387h146v-387h75v-247h-98l-11 141h-429z" />
<glyph unicode="&#x447;" horiz-adv-x="567" d="M43 268v225h146v-179q0 -26 11.5 -36.5t39.5 -10.5q57 0 116 21v205h146v-493h-146v184q-85 -29 -166 -29q-147 0 -147 113z" />
<glyph unicode="&#x448;" horiz-adv-x="836" d="M63 0v493h142v-387h148v387h130v-387h148v387h142v-493h-710z" />
<glyph unicode="&#x449;" horiz-adv-x="872" d="M63 0v493h142v-387h147v387h131v-387h147v387h143v-387h74v-247h-97l-12 141h-675z" />
<glyph unicode="&#x44a;" horiz-adv-x="654" d="M19 384v109h307v-171h73q129 0 177 -34.5t48 -129.5q0 -93 -46.5 -128.5t-154.5 -35.5q-152 0 -237 6h-2v384h-165zM326 98h73q45 0 60.5 13t15.5 53q0 38 -15.5 51.5t-60.5 13.5h-73v-131z" />
<glyph unicode="&#x44b;" horiz-adv-x="779" d="M63 0v493h142v-171h74q130 0 178 -34.5t48 -129.5q0 -93 -46 -128.5t-154 -35.5q-153 0 -238 6h-4zM205 98h74q46 0 61.5 12.5t15.5 53.5q0 39 -15.5 52t-61.5 13h-74v-131zM568 0v493h148v-493h-148z" />
<glyph unicode="&#x44c;" horiz-adv-x="537" d="M63 0v493h142v-171h76q130 0 178 -34.5t48 -129.5q0 -93 -46.5 -128.5t-154.5 -35.5q-154 0 -239 6h-4zM205 98h76q46 0 61.5 12.5t15.5 53.5q0 39 -15.5 52t-61.5 13h-76v-131z" />
<glyph unicode="&#x44d;" horiz-adv-x="534" d="M32 14l12 96q92 -5 182 -5q64 0 88.5 19.5t28.5 80.5h-248v91h247q-7 54 -32 73t-84 18q-59 0 -177 -2l-12 94q75 25 189 25q148 0 207.5 -57.5t59.5 -202.5q0 -142 -60 -199t-207 -57q-117 0 -194 26z" />
<glyph unicode="&#x44e;" horiz-adv-x="831" d="M63 0v493h147v-188h97q9 116 61 159t172 43q140 0 194.5 -54t54.5 -207q0 -149 -55 -202.5t-194 -53.5q-123 0 -175 45t-59 166h-96v-201h-147zM442 248q0 -85 19 -113.5t77 -28.5t78 28.5t20 113.5q0 86 -20 114.5t-78 28.5t-77 -28.5t-19 -114.5z" />
<glyph unicode="&#x44f;" horiz-adv-x="564" d="M25 0l42 153q14 49 94 57v5q-108 20 -108 133q0 87 44 121t167 34q166 0 238 -7v-496h-144v168h-91q-50 0 -57 -36l-33 -132h-152zM197 334q0 -42 13 -55.5t57 -13.5h91v129h-91q-44 0 -57 -11.5t-13 -48.5z" />
<glyph unicode="&#x451;" horiz-adv-x="563" d="M41 246q0 144 58 202.5t193 58.5q123 0 178 -42.5t56 -129.5q0 -69 -35.5 -103.5t-114.5 -34.5h-178q7 -54 33 -72.5t84 -18.5q79 0 184 11l14 -92q-77 -37 -215 -37q-139 0 -198 60t-59 198zM146 613v58q0 33 32 33h49q32 0 32 -33v-58q0 -33 -32 -33h-49q-32 0 -32 33z M195 286h140q28 0 37 13t9 38q0 35 -18 48.5t-66 13.5q-57 0 -78 -22.5t-24 -90.5zM327 613v58q0 33 33 33h49q32 0 32 -33v-58q0 -33 -32 -33h-49q-33 0 -33 33z" />
<glyph unicode="&#x452;" d="M19 480v72h67v148h147v-148h172v-72h-171v-45q0 -47 -7 -94q97 72 198 72q140 0 140 -137v-276h-149v231q0 31 -12.5 42.5t-46.5 11.5q-50 0 -124 -35v-250h-147v480h-67z" />
<glyph unicode="&#x453;" horiz-adv-x="480" d="M60 0v380q0 119 127 119q198 0 279 -13l-6 -103h-208q-24 0 -34.5 -10.5t-10.5 -34.5v-338h-147zM180 604l201 148l68 -102l-226 -110z" />
<glyph unicode="&#x454;" horiz-adv-x="534" d="M41 244q0 145 59.5 202.5t207.5 57.5q118 0 190 -25l-13 -94q-116 2 -177 2q-59 1 -84 -18t-31 -73h247v-91h-249q5 -61 30 -80.5t87 -19.5q92 0 182 5l12 -96q-77 -26 -194 -26q-147 0 -207 57t-60 199z" />
<glyph unicode="&#x455;" horiz-adv-x="530" d="M39 366q0 77 47 109t162 32q132 -2 229 -19l-10 -95q-128 2 -191 2q-35 0 -48.5 -0.5t-27 -3.5t-16.5 -9.5t-3 -19.5q0 -5 0.5 -9t2.5 -7.5t3.5 -5.5t5.5 -4.5t6.5 -3.5t9 -3.5t10 -3.5t13 -3.5t14.5 -3.5l126 -34q66 -19 94 -50.5t28 -93.5q0 -88 -51 -119.5t-175 -31.5 q-120 0 -221 17l9 96q36 -2 171 -2q77 0 100.5 6.5t23.5 30.5q0 5 -0.5 9t-2.5 7.5t-4 5.5t-6.5 4.5t-7 4t-9.5 4t-11 3.5t-13.5 3.5t-15.5 4.5l-123 33q-67 20 -93 54.5t-26 95.5z" />
<glyph unicode="&#x456;" horiz-adv-x="281" d="M65 614v54q0 43 43 43h65q43 0 43 -43v-54q0 -43 -43 -43h-65q-43 0 -43 43zM67 0v493h147v-493h-147z" />
<glyph unicode="&#x457;" horiz-adv-x="282" d="M-7 613v58q0 33 32 33h49q32 0 32 -33v-58q0 -33 -32 -33h-49q-32 0 -32 33zM67 0v493h148v-493h-148zM174 613v58q0 33 33 33h49q32 0 32 -33v-58q0 -33 -32 -33h-49q-33 0 -33 33z" />
<glyph unicode="&#x458;" horiz-adv-x="282" d="M7 -132q60 68 60 155v470h148v-470q0 -69 -34 -128.5t-93 -91.5zM64 618v54q0 43 43 43h66q43 0 43 -43v-54q0 -43 -43 -43h-66q-43 0 -43 43z" />
<glyph unicode="&#x459;" horiz-adv-x="826" d="M21 97q20 4 31.5 7.5t26 16t22.5 32.5q19 46 40 226q12 114 130 114h232v-172h71q127 0 174.5 -35t47.5 -129q0 -93 -45.5 -128t-152.5 -35q-125 0 -230 6h-2v396h-49q-25 0 -35.5 -9.5t-13.5 -34.5q-20 -173 -43 -240q-23 -70 -74 -98t-120 -18zM503 96h71q46 0 61.5 13 t15.5 53q0 39 -15.5 52.5t-61.5 13.5h-71v-132z" />
<glyph unicode="&#x45a;" horiz-adv-x="825" d="M63 0v493h135v-178h166v178h138v-179h76q125 0 171 -33t46 -124q0 -93 -44.5 -128t-149.5 -35q-151 0 -235 6h-2v219h-166v-219h-135zM502 96h76q43 0 58 13t15 51q0 37 -14.5 50t-58.5 13h-76v-127z" />
<glyph unicode="&#x45b;" d="M19 480v72h67v148h147v-148h172v-72h-171v-45q0 -47 -7 -94q97 72 198 72q138 0 140 -137v-253q0 -69 -33 -128.5t-90 -91.5l-83 65q57 66 57 155v208q0 30 -13 42t-46 12q-50 0 -124 -35v-250h-147v480h-67z" />
<glyph unicode="&#x45c;" horiz-adv-x="564" d="M63 0v493h147v-126q0 -30 -6 -60h37q57 0 79 32.5t57 153.5h150q-3 -10 -9 -28q-40 -123 -60 -153q-26 -38 -83 -49q-10 -2 -24 -4v-4q30 -4 49 -8.5t37 -18.5t27.5 -26t24.5 -46.5t24.5 -63.5t29.5 -92h-154q-44 140 -65 172t-74 32h-45q5 -25 5 -42v-162h-147zM209 604 l201 148l68 -102l-225 -110z" />
<glyph unicode="&#x45d;" d="M63 0v493h131v-263q0 -28 -5 -73h3q13 33 37 67l188 269h126v-494h-132v258q0 29 5 79h-4q-11 -36 -37 -73l-186 -263h-126zM105 650l68 102l201 -148l-44 -64z" />
<glyph unicode="&#x45e;" horiz-adv-x="565" d="M9 493h157l92 -319q12 -46 16 -74h12q16 57 20 74l91 319h158l-175 -500q-39 -122 -135 -171q-74 -42 -202 -20l12 98q91 -3 129 20q39 23 62 80h-28q-38 0 -49 36zM116 712h98q-4 -82 67 -82q69 0 65 82h98q8 -63 -37.5 -108.5t-125.5 -45.5t-126.5 45.5t-38.5 108.5z " />
<glyph unicode="&#x45f;" horiz-adv-x="601" d="M63 0v493h147v-387h182v387h146v-493h-179l-10 -163h-98l-11 163h-177z" />
<glyph unicode="&#x490;" horiz-adv-x="538" d="M69 0v546q0 65 41 106t104 41q133 0 197 -4l14 153h100v-166l-7 -106h-242q-29 0 -41.5 -12.5t-12.5 -42.5v-515h-153z" />
<glyph unicode="&#x491;" horiz-adv-x="481" d="M61 0v380q0 119 126 119q115 0 171 -3l13 142h96v-152l-7 -103h-207q-25 0 -35.5 -10.5t-10.5 -34.5v-338h-146z" />
<glyph unicode="&#x4b0;" horiz-adv-x="616" d="M5 690h159l114 -253q10 -22 26 -87h10q16 65 26 87l114 253h158l-197 -401h110v-81h-140v-208h-152v208h-141v81h111z" />
<glyph unicode="&#x4b1;" horiz-adv-x="616" d="M6 493h158l114 -248q5 -12 9.5 -26.5t9.5 -34t7 -27.5h9q17 67 26 88l113 248h159l-197 -397h111v-90h-140v-196h-153v196h-140v90h110z" />
<glyph unicode="&#x4b6;" horiz-adv-x="694" d="M48 401v289h153v-256q-2 -40 15.5 -56t62.5 -16q75 0 153 31v297h153v-588h87v-253h-107l-13 151h-120v283q-108 -49 -208 -49q-91 0 -133.5 40.5t-42.5 126.5z" />
<glyph unicode="&#x4b7;" horiz-adv-x="600" d="M43 268v225h146v-179q0 -26 11.5 -36.5t38.5 -10.5q57 0 115 21v205h146v-387h76v-247h-98l-11 141h-113v184q-85 -29 -165 -29q-146 0 -146 113z" />
<glyph unicode="&#x4ba;" horiz-adv-x="657" d="M72 0v690h152v-283q107 49 209 49q91 0 134 -40.5t43 -126.5v-289h-153v256q1 40 -16.5 56t-62.5 16q-78 0 -154 -31v-297h-152z" />
<glyph unicode="&#x4c0;" horiz-adv-x="296" d="M72 0v690h152v-690h-152z" />
<glyph unicode="&#x2000;" horiz-adv-x="467" />
<glyph unicode="&#x2001;" horiz-adv-x="935" />
<glyph unicode="&#x2002;" horiz-adv-x="467" />
<glyph unicode="&#x2003;" horiz-adv-x="935" />
<glyph unicode="&#x2004;" horiz-adv-x="311" />
<glyph unicode="&#x2005;" horiz-adv-x="233" />
<glyph unicode="&#x2006;" horiz-adv-x="155" />
<glyph unicode="&#x2007;" horiz-adv-x="155" />
<glyph unicode="&#x2008;" horiz-adv-x="116" />
<glyph unicode="&#x2009;" horiz-adv-x="187" />
<glyph unicode="&#x200a;" horiz-adv-x="51" />
<glyph unicode="&#x2010;" horiz-adv-x="414" d="M58 206v97h298v-97h-298z" />
<glyph unicode="&#x2011;" horiz-adv-x="414" d="M58 206v97h298v-97h-298z" />
<glyph unicode="&#x2012;" horiz-adv-x="414" d="M58 206v97h298v-97h-298z" />
<glyph unicode="&#x2013;" horiz-adv-x="561" d="M58 206v97h445v-97h-445z" />
<glyph unicode="&#x2014;" horiz-adv-x="857" d="M58 206v97h741v-97h-741z" />
<glyph unicode="&#x2018;" horiz-adv-x="223" d="M47 497v59q0 92 49 165l58 -16q-14 -55 -14 -117q40 0 40 -42l-1 -49q-2 -26 -12.5 -36.5t-37.5 -10.5h-33q-28 0 -38.5 10.5t-10.5 36.5z" />
<glyph unicode="&#x2019;" horiz-adv-x="220" d="M42 617l1 49q1 27 12 37.5t38 10.5h33q28 0 38.5 -10.5t10.5 -37.5v-58q-1 -91 -49 -166l-58 17q12 48 14 117q-40 0 -40 41z" />
<glyph unicode="&#x201a;" horiz-adv-x="234" d="M50 44l1 51q2 28 12.5 38.5t37.5 10.5h34q27 0 37.5 -10.5t10.5 -38.5v-61q0 -95 -48 -172l-59 17q14 56 14 122q-38 0 -40 43z" />
<glyph unicode="&#x201c;" horiz-adv-x="402" d="M47 497v59q0 92 49 165l58 -16q-14 -55 -14 -117q40 0 40 -42l-1 -49q-2 -26 -12.5 -36.5t-37.5 -10.5h-33q-28 0 -38.5 10.5t-10.5 36.5zM226 497v59q1 92 49 165l59 -16q-14 -50 -14 -117q38 0 40 -42l-2 -49q-1 -26 -12 -36.5t-38 -10.5h-33q-27 0 -37.5 10.5 t-11.5 36.5z" />
<glyph unicode="&#x201d;" horiz-adv-x="399" d="M42 617l1 49q1 27 12 37.5t38 10.5h33q28 0 38.5 -10.5t10.5 -37.5v-58q-1 -91 -49 -166l-58 17q12 48 14 117q-40 0 -40 41zM221 617l1 49q1 27 12.5 37.5t37.5 10.5h34q27 0 37.5 -10.5t10.5 -37.5v-58q0 -91 -48 -166l-59 17q14 55 14 117q-38 0 -40 41z" />
<glyph unicode="&#x201e;" horiz-adv-x="413" d="M50 36l1 49q1 27 12 37t38 10h33q28 0 38.5 -10t10.5 -37v-58q-1 -91 -49 -166l-58 17q12 48 14 117q-40 0 -40 41zM229 36l1 49q1 27 12 37t38 10h34q27 0 37.5 -10t10.5 -37v-58q0 -91 -48 -166l-59 17q14 55 14 117q-38 0 -40 41z" />
<glyph unicode="&#x2026;" horiz-adv-x="893" d="M46 52v48q0 29 11 40t40 11h40q29 0 40.5 -11t11.5 -40v-48q0 -29 -11.5 -40.5t-40.5 -11.5h-40q-29 0 -40 11.5t-11 40.5zM369 52v48q0 29 11.5 40t40.5 11h40q29 0 40.5 -11t11.5 -40v-48q0 -29 -11.5 -40.5t-40.5 -11.5h-40q-29 0 -40.5 11.5t-11.5 40.5zM693 52v48 q0 29 11.5 40t40.5 11h40q29 0 40.5 -11t11.5 -40v-48q0 -29 -11.5 -40.5t-40.5 -11.5h-40q-29 0 -40.5 11.5t-11.5 40.5z" />
<glyph unicode="&#x202f;" horiz-adv-x="187" />
<glyph unicode="&#x2039;" horiz-adv-x="311" d="M34 235v32l158 198l78 -50l-105 -164l106 -169l-78 -49z" />
<glyph unicode="&#x203a;" horiz-adv-x="312" d="M40 82l107 169l-106 164l77 50l160 -198v-32l-160 -202z" />
<glyph unicode="&#x205f;" horiz-adv-x="233" />
<glyph unicode="&#x20ac;" horiz-adv-x="639" d="M39 236v94h435l-9 -94h-188q11 -59 40 -87.5t83 -31.5q88 -9 188 9l12 -110q-82 -28 -189 -28q-138 0 -207.5 60.5t-87.5 187.5h-77zM40 368v95h76q19 123 88.5 181t206.5 58q93 0 174 -23l-13 -111q-109 14 -172 5q-50 -5 -79 -31t-42 -79h223l-10 -95h-452z" />
<glyph unicode="&#x2122;" horiz-adv-x="980" d="M56 616v80h340v-80h-119v-300h-102v300h-119zM433 316l14 343q2 37 36 37h96q31 0 39 -32l45 -172q2 -9 5 -27.5t5 -27.5h7q1 7 4.5 26.5t6.5 29.5l43 171q6 32 39 32h98q34 0 37 -37l13 -343h-94l-13 303h-10l-56 -216q-7 -31 -40 -31h-63q-32 0 -40 31l-56 216h-10 l-12 -303h-94z" />
<glyph unicode="&#x25fc;" horiz-adv-x="495" d="M0 0v495h495v-495h-495z" />
</font>
</defs>
</svg>
